<svg width="338" height="73" viewBox="0 0 338 73" fill="none" xmlns="http://www.w3.org/2000/svg">
<path d="M7.86932 1.36363L14.375 22.6705H14.6165L21.1222 1.36363H28.9915L19.1761 30.4545H9.81534L0 1.36363H7.86932ZM74.1241 8.63636V13.75H60.0901V8.63636H74.1241ZM63.0162 30.4545V7.52841C63.0162 5.8428 63.3334 4.44602 63.9679 3.33807C64.6024 2.22064 65.483 1.38731 66.6099 0.838067C67.7368 0.279353 69.0389 -3.33786e-06 70.5162 -3.33786e-06C71.4821 -3.33786e-06 72.3912 0.075755 73.2435 0.227272C74.1052 0.369317 74.7444 0.497157 75.1611 0.610794L74.0531 5.69602C73.7974 5.61079 73.4849 5.53977 73.1156 5.48295C72.7558 5.42613 72.4149 5.39772 72.0929 5.39772C71.2785 5.39772 70.7198 5.57765 70.4168 5.9375C70.1137 6.29735 69.9622 6.78977 69.9622 7.41477V30.4545H63.0162ZM107.066 30.4545V1.36363H119.196C121.374 1.36363 123.197 1.6714 124.665 2.28693C126.142 2.90246 127.25 3.7642 127.989 4.87216C128.737 5.98011 129.111 7.26326 129.111 8.72159C129.111 9.82954 128.879 10.8191 128.415 11.6903C127.951 12.5521 127.312 13.267 126.498 13.8352C125.683 14.4034 124.741 14.8011 123.671 15.0284V15.3125C124.845 15.3693 125.929 15.6866 126.924 16.2642C127.928 16.8419 128.732 17.6468 129.338 18.679C129.945 19.7017 130.248 20.9138 130.248 22.3153C130.248 23.8778 129.85 25.2746 129.054 26.5057C128.259 27.7273 127.108 28.6932 125.603 29.4034C124.097 30.1042 122.269 30.4545 120.12 30.4545H107.066ZM114.097 24.7869H118.444C119.968 24.7869 121.09 24.4981 121.81 23.9205C122.539 23.3428 122.904 22.5379 122.904 21.5057C122.904 20.7576 122.729 20.1136 122.378 19.5739C122.028 19.0246 121.531 18.6032 120.887 18.3097C120.243 18.0066 119.471 17.8551 118.571 17.8551H114.097V24.7869ZM114.097 13.3239H117.989C118.756 13.3239 119.438 13.196 120.035 12.9403C120.631 12.6847 121.095 12.3153 121.427 11.8324C121.767 11.3494 121.938 10.767 121.938 10.0852C121.938 9.10985 121.592 8.3428 120.901 7.78409C120.21 7.22538 119.277 6.94602 118.103 6.94602H114.097V13.3239ZM217.146 10.0852C217.052 9.04356 216.63 8.2339 215.882 7.65625C215.144 7.06913 214.088 6.77557 212.715 6.77557C211.806 6.77557 211.048 6.89394 210.442 7.13068C209.836 7.36742 209.381 7.69413 209.078 8.11079C208.775 8.51799 208.619 8.98674 208.61 9.51704C208.591 9.95265 208.676 10.3362 208.865 10.6676C209.064 10.9991 209.348 11.2926 209.717 11.5483C210.096 11.7945 210.551 12.0123 211.081 12.2017C211.611 12.3911 212.208 12.5568 212.871 12.6989L215.371 13.267C216.81 13.5795 218.079 13.9962 219.178 14.517C220.286 15.0379 221.214 15.6581 221.962 16.3778C222.719 17.0975 223.292 17.9261 223.681 18.8636C224.069 19.8011 224.268 20.8523 224.277 22.017C224.268 23.8542 223.804 25.4309 222.885 26.7472C221.967 28.0634 220.645 29.072 218.922 29.7727C217.208 30.4735 215.139 30.8239 212.715 30.8239C210.281 30.8239 208.16 30.4593 206.351 29.7301C204.542 29.0009 203.136 27.893 202.132 26.4062C201.128 24.9195 200.612 23.0398 200.584 20.767H207.317C207.374 21.7045 207.625 22.4858 208.07 23.1108C208.515 23.7358 209.126 24.2093 209.902 24.5312C210.688 24.8532 211.597 25.0142 212.629 25.0142C213.576 25.0142 214.381 24.8864 215.044 24.6307C215.717 24.375 216.233 24.0199 216.592 23.5653C216.952 23.1108 217.137 22.59 217.146 22.0028C217.137 21.4536 216.967 20.9848 216.635 20.5966C216.304 20.1989 215.792 19.858 215.101 19.5739C214.419 19.2803 213.548 19.0104 212.487 18.7642L209.448 18.054C206.929 17.4763 204.945 16.5436 203.496 15.2557C202.047 13.9583 201.327 12.2064 201.337 10C201.327 8.20076 201.81 6.62405 202.786 5.26988C203.761 3.91572 205.11 2.85985 206.834 2.10227C208.557 1.34469 210.522 0.965907 212.729 0.965907C214.983 0.965907 216.938 1.34943 218.595 2.11647C220.262 2.87405 221.555 3.93939 222.473 5.3125C223.392 6.6856 223.86 8.27651 223.879 10.0852H217.146ZM256.477 7.07386V1.36363H281.065V7.07386H272.244V30.4545H265.312V7.07386H256.477ZM314.099 30.4545V1.36363H326.116C328.294 1.36363 330.173 1.75663 331.755 2.54261C333.346 3.31913 334.572 4.43655 335.434 5.89488C336.296 7.34375 336.726 9.0625 336.726 11.0511C336.726 13.0682 336.286 14.7822 335.405 16.1932C334.525 17.5947 333.275 18.6648 331.655 19.4034C330.036 20.1326 328.118 20.4972 325.903 20.4972H318.303V14.9574H324.596C325.656 14.9574 326.542 14.8201 327.252 14.5455C327.972 14.2614 328.516 13.8352 328.886 13.267C329.255 12.6894 329.439 11.9508 329.439 11.0511C329.439 10.1515 329.255 9.40814 328.886 8.82102C328.516 8.22443 327.972 7.77935 327.252 7.48579C326.532 7.18276 325.647 7.03125 324.596 7.03125H321.13V30.4545H314.099ZM330.476 17.1591L337.721 30.4545H330.05L322.948 17.1591H330.476Z" fill="#D30029"/>
<path d="M18.4943 42.6364C18.3239 41.197 17.6326 40.0795 16.4205 39.2841C15.2083 38.4886 13.7216 38.0909 11.9602 38.0909C10.6723 38.0909 9.54546 38.2992 8.57955 38.7159C7.62311 39.1326 6.875 39.7055 6.33523 40.4347C5.80492 41.1638 5.53977 41.9924 5.53977 42.9205C5.53977 43.697 5.72443 44.3646 6.09375 44.9233C6.47254 45.4725 6.95549 45.9318 7.54261 46.3011C8.12973 46.661 8.74527 46.9593 9.3892 47.196C10.0331 47.4233 10.625 47.608 11.1648 47.75L14.1193 48.5455C14.8769 48.7443 15.7197 49.0189 16.6477 49.3693C17.5852 49.7197 18.4801 50.1979 19.3324 50.804C20.1941 51.4006 20.9044 52.1676 21.4631 53.1051C22.0218 54.0426 22.3011 55.1932 22.3011 56.5568C22.3011 58.1288 21.8892 59.5492 21.0653 60.8182C20.2509 62.0871 19.0578 63.0956 17.4858 63.8437C15.9233 64.5919 14.0246 64.9659 11.7898 64.9659C9.70644 64.9659 7.90246 64.6297 6.37784 63.9574C4.86269 63.285 3.66951 62.3475 2.7983 61.1449C1.93655 59.9422 1.44886 58.5455 1.33523 56.9545H4.97159C5.06629 58.053 5.43561 58.9621 6.07955 59.6818C6.73295 60.392 7.55682 60.9223 8.55114 61.2727C9.55492 61.6136 10.6345 61.7841 11.7898 61.7841C13.1345 61.7841 14.3419 61.5663 15.4119 61.1307C16.482 60.6856 17.3295 60.0701 17.9545 59.2841C18.5795 58.4886 18.892 57.5606 18.892 56.5C18.892 55.5341 18.6222 54.7481 18.0824 54.142C17.5426 53.536 16.8324 53.0436 15.9517 52.6648C15.071 52.286 14.1193 51.9545 13.0966 51.6705L9.51705 50.6477C7.24432 49.9943 5.44508 49.0616 4.11932 47.8494C2.79356 46.6373 2.13068 45.0511 2.13068 43.0909C2.13068 41.4621 2.57102 40.0417 3.4517 38.8295C4.34186 37.608 5.53504 36.661 7.03125 35.9886C8.53693 35.3068 10.2178 34.9659 12.0739 34.9659C13.9489 34.9659 15.6155 35.3021 17.0739 35.9744C18.5322 36.6373 19.6875 37.5464 20.5398 38.7017C21.4015 39.857 21.8561 41.1686 21.9034 42.6364H18.4943ZM27.6385 72.6364V42.6364H30.8771V46.1023H31.2749C31.5211 45.7235 31.862 45.2405 32.2976 44.6534C32.7427 44.0568 33.3771 43.5265 34.201 43.0625C35.0343 42.589 36.1612 42.3523 37.5817 42.3523C39.4188 42.3523 41.0381 42.8116 42.4396 43.7301C43.8411 44.6487 44.9349 45.9508 45.7209 47.6364C46.5069 49.322 46.8999 51.3106 46.8999 53.6023C46.8999 55.9129 46.5069 57.9157 45.7209 59.6108C44.9349 61.2964 43.8459 62.6032 42.4538 63.5312C41.0618 64.4498 39.4567 64.9091 37.6385 64.9091C36.237 64.9091 35.1148 64.6771 34.272 64.2131C33.4292 63.7396 32.7805 63.2045 32.326 62.608C31.8714 62.0019 31.5211 61.5 31.2749 61.1023H30.9908V72.6364H27.6385ZM30.9339 53.5455C30.9339 55.1932 31.1754 56.6468 31.6584 57.9062C32.1413 59.1562 32.8468 60.1364 33.7749 60.8466C34.7029 61.5473 35.8393 61.8977 37.1839 61.8977C38.5855 61.8977 39.755 61.5284 40.6925 60.7898C41.6394 60.0417 42.3497 59.0379 42.8232 57.7784C43.3061 56.5095 43.5476 55.0985 43.5476 53.5455C43.5476 52.0114 43.3108 50.6288 42.8374 49.3977C42.3733 48.1572 41.6679 47.1771 40.7209 46.4574C39.7834 45.7282 38.6044 45.3636 37.1839 45.3636C35.8203 45.3636 34.6745 45.7093 33.7464 46.4006C32.8184 47.0824 32.1177 48.0388 31.6442 49.2699C31.1707 50.4915 30.9339 51.9167 30.9339 53.5455ZM52.0135 64.4545V42.6364H55.3658V64.4545H52.0135ZM53.718 39C53.0646 39 52.5012 38.7775 52.0277 38.3324C51.5637 37.8873 51.3317 37.3523 51.3317 36.7273C51.3317 36.1023 51.5637 35.5672 52.0277 35.1222C52.5012 34.6771 53.0646 34.4545 53.718 34.4545C54.3714 34.4545 54.9302 34.6771 55.3942 35.1222C55.8677 35.5672 56.1044 36.1023 56.1044 36.7273C56.1044 37.3523 55.8677 37.8873 55.3942 38.3324C54.9302 38.7775 54.3714 39 53.718 39ZM70.6534 64.9091C68.5511 64.9091 66.7377 64.4451 65.2131 63.517C63.6979 62.5795 62.5284 61.2727 61.7045 59.5966C60.8902 57.911 60.483 55.9508 60.483 53.7159C60.483 51.4811 60.8902 49.5114 61.7045 47.8068C62.5284 46.0928 63.6742 44.7576 65.142 43.8011C66.6193 42.8352 68.3428 42.3523 70.3125 42.3523C71.4489 42.3523 72.571 42.5417 73.679 42.9205C74.7869 43.2992 75.7955 43.9148 76.7045 44.767C77.6136 45.6098 78.3381 46.7273 78.8778 48.1193C79.4176 49.5114 79.6875 51.2254 79.6875 53.2614V54.6818H62.8693V51.7841H76.2784C76.2784 50.553 76.0322 49.4545 75.5398 48.4886C75.0568 47.5227 74.3655 46.7604 73.4659 46.2017C72.5758 45.643 71.5246 45.3636 70.3125 45.3636C68.9773 45.3636 67.822 45.6951 66.8466 46.358C65.8807 47.0114 65.1373 47.8636 64.6165 48.9148C64.0956 49.9659 63.8352 51.0928 63.8352 52.2955V54.2273C63.8352 55.875 64.1193 57.2718 64.6875 58.4176C65.2652 59.554 66.0653 60.4205 67.0881 61.017C68.1108 61.6042 69.2992 61.8977 70.6534 61.8977C71.5341 61.8977 72.3295 61.7746 73.0398 61.5284C73.7595 61.2727 74.3797 60.8939 74.9006 60.392C75.4214 59.8807 75.8239 59.2462 76.108 58.4886L79.3466 59.3977C79.0057 60.4962 78.4328 61.4621 77.6278 62.2955C76.8229 63.1193 75.8286 63.7633 74.6449 64.2273C73.4612 64.6818 72.1307 64.9091 70.6534 64.9091ZM88.1392 35.3636V64.4545H84.7869V35.3636H88.1392ZM103.427 64.9091C101.325 64.9091 99.5111 64.4451 97.9865 63.517C96.4714 62.5795 95.3018 61.2727 94.478 59.5966C93.6636 57.911 93.2564 55.9508 93.2564 53.7159C93.2564 51.4811 93.6636 49.5114 94.478 47.8068C95.3018 46.0928 96.4477 44.7576 97.9155 43.8011C99.3928 42.8352 101.116 42.3523 103.086 42.3523C104.222 42.3523 105.344 42.5417 106.452 42.9205C107.56 43.2992 108.569 43.9148 109.478 44.767C110.387 45.6098 111.112 46.7273 111.651 48.1193C112.191 49.5114 112.461 51.2254 112.461 53.2614V54.6818H95.6428V51.7841H109.052C109.052 50.553 108.806 49.4545 108.313 48.4886C107.83 47.5227 107.139 46.7604 106.239 46.2017C105.349 45.643 104.298 45.3636 103.086 45.3636C101.751 45.3636 100.595 45.6951 99.62 46.358C98.6541 47.0114 97.9107 47.8636 97.3899 48.9148C96.8691 49.9659 96.6087 51.0928 96.6087 52.2955V54.2273C96.6087 55.875 96.8928 57.2718 97.4609 58.4176C98.0386 59.554 98.8388 60.4205 99.8615 61.017C100.884 61.6042 102.073 61.8977 103.427 61.8977C104.308 61.8977 105.103 61.7746 105.813 61.5284C106.533 61.2727 107.153 60.8939 107.674 60.392C108.195 59.8807 108.597 59.2462 108.881 58.4886L112.12 59.3977C111.779 60.4962 111.206 61.4621 110.401 62.2955C109.596 63.1193 108.602 63.7633 107.418 64.2273C106.235 64.6818 104.904 64.9091 103.427 64.9091ZM117.56 64.4545V42.6364H120.799V45.9318H121.026C121.424 44.8523 122.144 43.9763 123.185 43.304C124.227 42.6316 125.401 42.2955 126.708 42.2955C126.954 42.2955 127.262 42.3002 127.631 42.3097C128.001 42.3191 128.28 42.3333 128.469 42.3523V45.7614C128.356 45.733 128.095 45.6903 127.688 45.6335C127.29 45.5672 126.869 45.5341 126.424 45.5341C125.363 45.5341 124.416 45.7566 123.583 46.2017C122.759 46.6373 122.106 47.2434 121.623 48.0199C121.149 48.7869 120.913 49.6629 120.913 50.6477V64.4545H117.56ZM151.932 64.9091C150.114 64.9091 148.509 64.4498 147.116 63.5312C145.724 62.6032 144.635 61.2964 143.849 59.6108C143.063 57.9157 142.67 55.9129 142.67 53.6023C142.67 51.3106 143.063 49.322 143.849 47.6364C144.635 45.9508 145.729 44.6487 147.131 43.7301C148.532 42.8116 150.152 42.3523 151.989 42.3523C153.409 42.3523 154.531 42.589 155.355 43.0625C156.188 43.5265 156.823 44.0568 157.259 44.6534C157.704 45.2405 158.049 45.7235 158.295 46.1023H158.58V35.3636H161.932V64.4545H158.693V61.1023H158.295C158.049 61.5 157.699 62.0019 157.244 62.608C156.79 63.2045 156.141 63.7396 155.298 64.2131C154.455 64.6771 153.333 64.9091 151.932 64.9091ZM152.386 61.8977C153.731 61.8977 154.867 61.5473 155.795 60.8466C156.723 60.1364 157.429 59.1562 157.912 57.9062C158.395 56.6468 158.636 55.1932 158.636 53.5455C158.636 51.9167 158.4 50.4915 157.926 49.2699C157.453 48.0388 156.752 47.0824 155.824 46.4006C154.896 45.7093 153.75 45.3636 152.386 45.3636C150.966 45.3636 149.782 45.7282 148.835 46.4574C147.898 47.1771 147.192 48.1572 146.719 49.3977C146.255 50.6288 146.023 52.0114 146.023 53.5455C146.023 55.0985 146.259 56.5095 146.733 57.7784C147.216 59.0379 147.926 60.0417 148.864 60.7898C149.811 61.5284 150.985 61.8977 152.386 61.8977ZM177.685 64.9091C175.582 64.9091 173.769 64.4451 172.244 63.517C170.729 62.5795 169.56 61.2727 168.736 59.5966C167.921 57.911 167.514 55.9508 167.514 53.7159C167.514 51.4811 167.921 49.5114 168.736 47.8068C169.56 46.0928 170.705 44.7576 172.173 43.8011C173.651 42.8352 175.374 42.3523 177.344 42.3523C178.48 42.3523 179.602 42.5417 180.71 42.9205C181.818 43.2992 182.827 43.9148 183.736 44.767C184.645 45.6098 185.369 46.7273 185.909 48.1193C186.449 49.5114 186.719 51.2254 186.719 53.2614V54.6818H169.901V51.7841H183.31C183.31 50.553 183.063 49.4545 182.571 48.4886C182.088 47.5227 181.397 46.7604 180.497 46.2017C179.607 45.643 178.556 45.3636 177.344 45.3636C176.009 45.3636 174.853 45.6951 173.878 46.358C172.912 47.0114 172.169 47.8636 171.648 48.9148C171.127 49.9659 170.866 51.0928 170.866 52.2955V54.2273C170.866 55.875 171.151 57.2718 171.719 58.4176C172.296 59.554 173.097 60.4205 174.119 61.017C175.142 61.6042 176.33 61.8977 177.685 61.8977C178.565 61.8977 179.361 61.7746 180.071 61.5284C180.791 61.2727 181.411 60.8939 181.932 60.392C182.453 59.8807 182.855 59.2462 183.139 58.4886L186.378 59.3977C186.037 60.4962 185.464 61.4621 184.659 62.2955C183.854 63.1193 182.86 63.7633 181.676 64.2273C180.492 64.6818 179.162 64.9091 177.685 64.9091ZM191.818 64.4545V42.6364H195.057V45.9318H195.284C195.682 44.8523 196.402 43.9763 197.443 43.304C198.485 42.6316 199.659 42.2955 200.966 42.2955C201.212 42.2955 201.52 42.3002 201.889 42.3097C202.259 42.3191 202.538 42.3333 202.727 42.3523V45.7614C202.614 45.733 202.353 45.6903 201.946 45.6335C201.548 45.5672 201.127 45.5341 200.682 45.5341C199.621 45.5341 198.674 45.7566 197.841 46.2017C197.017 46.6373 196.364 47.2434 195.881 48.0199C195.407 48.7869 195.17 49.6629 195.17 50.6477V64.4545H191.818ZM234.315 42.6364C234.144 41.197 233.453 40.0795 232.241 39.2841C231.029 38.4886 229.542 38.0909 227.781 38.0909C226.493 38.0909 225.366 38.2992 224.4 38.7159C223.443 39.1326 222.695 39.7055 222.156 40.4347C221.625 41.1638 221.36 41.9924 221.36 42.9205C221.36 43.697 221.545 44.3646 221.914 44.9233C222.293 45.4725 222.776 45.9318 223.363 46.3011C223.95 46.661 224.566 46.9593 225.21 47.196C225.853 47.4233 226.445 47.608 226.985 47.75L229.94 48.5455C230.697 48.7443 231.54 49.0189 232.468 49.3693C233.406 49.7197 234.3 50.1979 235.153 50.804C236.014 51.4006 236.725 52.1676 237.283 53.1051C237.842 54.0426 238.121 55.1932 238.121 56.5568C238.121 58.1288 237.71 59.5492 236.886 60.8182C236.071 62.0871 234.878 63.0956 233.306 63.8437C231.744 64.5919 229.845 64.9659 227.61 64.9659C225.527 64.9659 223.723 64.6297 222.198 63.9574C220.683 63.285 219.49 62.3475 218.619 61.1449C217.757 59.9422 217.269 58.5455 217.156 56.9545H220.792C220.887 58.053 221.256 58.9621 221.9 59.6818C222.553 60.392 223.377 60.9223 224.371 61.2727C225.375 61.6136 226.455 61.7841 227.61 61.7841C228.955 61.7841 230.162 61.5663 231.232 61.1307C232.302 60.6856 233.15 60.0701 233.775 59.2841C234.4 58.4886 234.712 57.5606 234.712 56.5C234.712 55.5341 234.442 54.7481 233.903 54.142C233.363 53.536 232.653 53.0436 231.772 52.6648C230.891 52.286 229.94 51.9545 228.917 51.6705L225.337 50.6477C223.065 49.9943 221.265 49.0616 219.94 47.8494C218.614 46.6373 217.951 45.0511 217.951 43.0909C217.951 41.4621 218.391 40.0417 219.272 38.8295C220.162 37.608 221.355 36.661 222.852 35.9886C224.357 35.3068 226.038 34.9659 227.894 34.9659C229.769 34.9659 231.436 35.3021 232.894 35.9744C234.353 36.6373 235.508 37.5464 236.36 38.7017C237.222 39.857 237.676 41.1686 237.724 42.6364H234.315ZM249.879 64.9659C248.497 64.9659 247.242 64.7055 246.115 64.1847C244.988 63.6544 244.093 62.892 243.43 61.8977C242.768 60.8939 242.436 59.6818 242.436 58.2614C242.436 57.0114 242.682 55.9981 243.175 55.2216C243.667 54.4356 244.325 53.8201 245.149 53.375C245.973 52.9299 246.882 52.5985 247.876 52.3807C248.88 52.1534 249.889 51.9735 250.902 51.8409C252.228 51.6705 253.303 51.5426 254.126 51.4574C254.96 51.3627 255.566 51.2064 255.945 50.9886C256.333 50.7708 256.527 50.392 256.527 49.8523V49.7386C256.527 48.3371 256.143 47.2481 255.376 46.4716C254.619 45.6951 253.468 45.3068 251.925 45.3068C250.324 45.3068 249.07 45.6572 248.161 46.358C247.251 47.0587 246.612 47.8068 246.243 48.6023L243.061 47.4659C243.629 46.1401 244.387 45.108 245.334 44.3693C246.29 43.6212 247.332 43.1004 248.459 42.8068C249.595 42.5038 250.713 42.3523 251.811 42.3523C252.512 42.3523 253.317 42.4375 254.226 42.608C255.144 42.7689 256.03 43.1051 256.882 43.6165C257.744 44.1278 258.459 44.8996 259.027 45.9318C259.595 46.964 259.879 48.3466 259.879 50.0795V64.4545H256.527V61.5H256.357C256.129 61.9735 255.75 62.4801 255.22 63.0199C254.69 63.5597 253.984 64.0189 253.104 64.3977C252.223 64.7765 251.148 64.9659 249.879 64.9659ZM250.391 61.9545C251.716 61.9545 252.834 61.6941 253.743 61.1733C254.661 60.6525 255.353 59.9801 255.817 59.1562C256.29 58.3324 256.527 57.4659 256.527 56.5568V53.4886C256.385 53.6591 256.072 53.8153 255.589 53.9574C255.116 54.09 254.567 54.2083 253.942 54.3125C253.326 54.4072 252.725 54.4924 252.138 54.5682C251.56 54.6345 251.091 54.6913 250.732 54.7386C249.86 54.8523 249.046 55.0369 248.288 55.2926C247.54 55.5388 246.934 55.9129 246.47 56.4148C246.016 56.9072 245.788 57.5795 245.788 58.4318C245.788 59.5966 246.219 60.4773 247.081 61.0739C247.952 61.661 249.055 61.9545 250.391 61.9545ZM265.998 64.4545V42.6364H269.35V64.4545H265.998ZM267.702 39C267.049 39 266.486 38.7775 266.012 38.3324C265.548 37.8873 265.316 37.3523 265.316 36.7273C265.316 36.1023 265.548 35.5672 266.012 35.1222C266.486 34.6771 267.049 34.4545 267.702 34.4545C268.356 34.4545 268.915 34.6771 269.379 35.1222C269.852 35.5672 270.089 36.1023 270.089 36.7273C270.089 37.3523 269.852 37.8873 269.379 38.3324C268.915 38.7775 268.356 39 267.702 39ZM290.945 47.5227L287.933 48.375C287.744 47.8731 287.464 47.3854 287.095 46.9119C286.735 46.429 286.243 46.0312 285.618 45.7187C284.993 45.4062 284.193 45.25 283.217 45.25C281.882 45.25 280.769 45.5578 279.879 46.1733C278.999 46.7794 278.558 47.5511 278.558 48.4886C278.558 49.322 278.861 49.9801 279.467 50.4631C280.073 50.946 281.02 51.3485 282.308 51.6705L285.547 52.4659C287.498 52.9394 288.951 53.6638 289.908 54.6392C290.864 55.6051 291.342 56.8504 291.342 58.375C291.342 59.625 290.982 60.7424 290.263 61.7273C289.553 62.7121 288.558 63.4886 287.28 64.0568C286.001 64.625 284.515 64.9091 282.82 64.9091C280.594 64.9091 278.752 64.4261 277.294 63.4602C275.836 62.4943 274.912 61.0833 274.524 59.2273L277.706 58.4318C278.009 59.6061 278.582 60.4867 279.425 61.0739C280.277 61.661 281.39 61.9545 282.763 61.9545C284.325 61.9545 285.566 61.6231 286.484 60.9602C287.412 60.2879 287.876 59.483 287.876 58.5455C287.876 57.7879 287.611 57.1534 287.081 56.642C286.551 56.1212 285.736 55.733 284.638 55.4773L281.001 54.625C279.003 54.1515 277.536 53.4176 276.598 52.4233C275.67 51.4195 275.206 50.1648 275.206 48.6591C275.206 47.428 275.552 46.339 276.243 45.392C276.944 44.4451 277.895 43.7017 279.098 43.1619C280.31 42.6222 281.683 42.3523 283.217 42.3523C285.376 42.3523 287.071 42.8258 288.303 43.7727C289.543 44.7197 290.424 45.9697 290.945 47.5227ZM305.252 64.9091C303.282 64.9091 301.554 64.4403 300.067 63.5028C298.59 62.5653 297.435 61.2538 296.602 59.5682C295.778 57.8826 295.366 55.9129 295.366 53.6591C295.366 51.3864 295.778 49.4025 296.602 47.7074C297.435 46.0123 298.59 44.696 300.067 43.7585C301.554 42.821 303.282 42.3523 305.252 42.3523C307.222 42.3523 308.945 42.821 310.423 43.7585C311.909 44.696 313.065 46.0123 313.888 47.7074C314.722 49.4025 315.138 51.3864 315.138 53.6591C315.138 55.9129 314.722 57.8826 313.888 59.5682C313.065 61.2538 311.909 62.5653 310.423 63.5028C308.945 64.4403 307.222 64.9091 305.252 64.9091ZM305.252 61.8977C306.748 61.8977 307.979 61.5142 308.945 60.7472C309.911 59.9801 310.626 58.9716 311.09 57.7216C311.554 56.4716 311.786 55.1174 311.786 53.6591C311.786 52.2008 311.554 50.8419 311.09 49.5824C310.626 48.3229 309.911 47.3049 308.945 46.5284C307.979 45.7519 306.748 45.3636 305.252 45.3636C303.756 45.3636 302.525 45.7519 301.559 46.5284C300.593 47.3049 299.878 48.3229 299.414 49.5824C298.95 50.8419 298.718 52.2008 298.718 53.6591C298.718 55.1174 298.95 56.4716 299.414 57.7216C299.878 58.9716 300.593 59.9801 301.559 60.7472C302.525 61.5142 303.756 61.8977 305.252 61.8977ZM323.608 51.3295V64.4545H320.256V42.6364H323.494V46.0455H323.778C324.29 44.9375 325.066 44.0473 326.108 43.375C327.15 42.6932 328.494 42.3523 330.142 42.3523C331.619 42.3523 332.912 42.6553 334.02 43.2614C335.128 43.858 335.99 44.767 336.605 45.9886C337.221 47.2008 337.528 48.7348 337.528 50.5909V64.4545H334.176V50.8182C334.176 49.1042 333.731 47.7689 332.841 46.8125C331.951 45.8466 330.729 45.3636 329.176 45.3636C328.106 45.3636 327.15 45.5956 326.307 46.0597C325.473 46.5237 324.815 47.2008 324.332 48.0909C323.849 48.9811 323.608 50.0606 323.608 51.3295Z" fill="white"/>
</svg>
